<svg width="158" height="78" viewBox="0 0 158 78" fill="none" xmlns="http://www.w3.org/2000/svg">
<mask id="path-1-outside-1_2962_404" maskUnits="userSpaceOnUse" x="0" y="0" width="158" height="78" fill="black">
<rect fill="white" width="158" height="78"/>
<path fill-rule="evenodd" clip-rule="evenodd" d="M102.269 40.8095H97.81C94.314 40.8095 91.4766 43.6469 91.4766 47.1429V56.1905C91.4766 59.6865 94.314 62.5238 97.81 62.5238H100.43C99.2902 63.6421 97.7232 64.3333 96.0005 64.3333H61.6194C59.8967 64.3333 58.3296 63.6421 57.1896 62.5238H59.8098C63.3058 62.5238 66.1432 59.6865 66.1432 56.1905V47.1429C66.1432 43.6469 63.3058 40.8095 59.8098 40.8095H55.3511C55.789 37.7406 58.431 35.381 61.6194 35.381H69.7622C70.7611 35.381 71.5718 34.5703 71.5718 33.5714V24.5238C71.5718 23.525 70.7611 22.7143 69.7622 22.7143H57.0955C49.1046 22.7143 42.6193 29.1996 42.6193 37.1905V40.8095H35.3811C35.3811 33.8175 29.7064 28.1429 22.7144 28.1429H2.80953C1.81067 28.1429 1 28.9535 1 29.9524C1 30.9512 1.81067 31.7619 2.80953 31.7619H22.7144C27.7087 31.7619 31.7621 35.8152 31.7621 40.8095V49.8571H26.3335V45.3333C26.3335 40.8385 22.6854 37.1905 18.1906 37.1905H2.80953C1.81067 37.1905 1 38.0011 1 39C1 39.9989 1.81067 40.8095 2.80953 40.8095H18.1906C14.6945 40.8095 11.8572 43.6469 11.8572 47.1429V56.1905C11.8572 57.9602 12.5846 59.5634 13.7608 60.7143H2.80953C1.81067 60.7143 1 61.525 1 62.5238C1 63.5227 1.81067 64.3333 2.80953 64.3333H18.1906C20.1268 64.3333 21.9073 63.6566 23.3079 62.5238H31.5811C30.7415 66.6531 27.0898 69.7619 22.7144 69.7619H2.80953C1.81067 69.7619 1 70.5726 1 71.5714C1 72.5703 1.81067 73.381 2.80953 73.381H22.7144C29.0912 73.381 34.3714 68.6581 35.2508 62.5238H42.6193C42.6193 70.5147 49.1046 77 57.0955 77H100.524C108.515 77 115.001 70.5147 115.001 62.5238H122.369C123.248 68.6581 128.529 73.381 134.905 73.381H154.81C155.809 73.381 156.62 72.5703 156.62 71.5714C156.62 70.5726 155.809 69.7619 154.81 69.7619H134.905C130.53 69.7619 126.878 66.6531 126.039 62.5238H134.312C135.712 63.6566 137.493 64.3333 139.429 64.3333H154.81C155.809 64.3333 156.62 63.5227 156.62 62.5238C156.62 61.525 155.809 60.7143 154.81 60.7143H143.859C145.035 59.5634 145.763 57.9602 145.763 56.1905V47.1429C145.763 43.6469 142.925 40.8095 139.429 40.8095H154.81C155.809 40.8095 156.62 39.9989 156.62 39C156.62 38.0011 155.809 37.1905 154.81 37.1905H139.429C134.934 37.1905 131.286 40.8385 131.286 45.3333V49.8571H125.858V40.8095C125.858 35.8152 129.911 31.7619 134.905 31.7619H154.81C155.809 31.7619 156.62 30.9512 156.62 29.9524C156.62 28.9535 155.809 28.1429 154.81 28.1429H134.905C127.913 28.1429 122.239 33.8175 122.239 40.8095H115.001V37.1905C115.001 29.1996 108.515 22.7143 100.524 22.7143H87.8576C86.8587 22.7143 86.048 23.525 86.048 24.5238V33.5714C86.048 34.5703 86.8587 35.381 87.8576 35.381H96.0005C99.1889 35.381 101.831 37.7406 102.269 40.8095ZM52.7527 62.5238H46.2383C46.2383 68.517 51.1023 73.381 57.0955 73.381H100.524C106.517 73.381 111.382 68.517 111.382 62.5238H104.867C103.217 65.7448 99.8656 67.9524 96.0005 67.9524H61.6194C57.7542 67.9524 54.4029 65.7448 52.7527 62.5238ZM55.286 49.8571C56.2848 49.8571 57.0955 50.6678 57.0955 51.6667C57.0955 52.6655 56.2848 53.4762 55.286 53.4762H22.7144C21.7155 53.4762 20.9049 52.6655 20.9049 51.6667C20.9049 50.6678 21.7155 49.8571 22.7144 49.8571V45.3333C22.7144 45.0221 22.6818 44.7217 22.6239 44.4286H18.1906C16.6923 44.4286 15.4763 45.6446 15.4763 47.1429V56.1905C15.4763 57.6888 16.6923 58.9048 18.1906 58.9048H59.8098C61.3081 58.9048 62.5241 57.6888 62.5241 56.1905V47.1429C62.5241 45.6446 61.3081 44.4286 59.8098 44.4286H55.286V49.8571ZM102.334 44.4286H97.81C96.3117 44.4286 95.0957 45.6446 95.0957 47.1429V56.1905C95.0957 57.6888 96.3117 58.9048 97.81 58.9048H139.429C140.928 58.9048 142.144 57.6888 142.144 56.1905V47.1429C142.144 45.6446 140.928 44.4286 139.429 44.4286H134.996C134.938 44.7217 134.905 45.0221 134.905 45.3333V49.8571C135.904 49.8571 136.715 50.6678 136.715 51.6667C136.715 52.6655 135.904 53.4762 134.905 53.4762H102.334C101.335 53.4762 100.524 52.6655 100.524 51.6667C100.524 50.6678 101.335 49.8571 102.334 49.8571V44.4286ZM115.001 44.4286V49.8571H122.239V44.4286H115.001ZM111.382 49.8571V37.1905C111.382 31.1973 106.517 26.3333 100.524 26.3333H89.6671V31.7619H96.0005C101.494 31.7619 105.953 36.2206 105.953 41.7143V49.8571H111.382ZM51.6669 49.8571V41.7143C51.6669 36.2206 56.1256 31.7619 61.6194 31.7619H67.9527V26.3333H57.0955C51.1023 26.3333 46.2383 31.1973 46.2383 37.1905V49.8571H51.6669ZM35.3811 44.4286V49.8571H42.6193V44.4286H35.3811ZM64.6377 9.24055L68.2567 14.6691C68.8104 15.5015 69.936 15.7259 70.7647 15.1722C71.5971 14.6185 71.8215 13.493 71.2678 12.6642L67.6487 7.23565C67.095 6.40326 65.9695 6.17886 65.1407 6.73257C64.3083 7.28628 64.0839 8.41178 64.6377 9.24055ZM89.9711 7.23565L86.352 12.6642C85.7983 13.493 86.0227 14.6185 86.8551 15.1722C87.6839 15.7259 88.8094 15.5015 89.3631 14.6691L92.9822 9.24055C93.5359 8.41178 93.3115 7.28628 92.4791 6.73257C91.6504 6.17886 90.5248 6.40326 89.9711 7.23565ZM77.0004 2.80952V10.0476C77.0004 11.0465 77.8111 11.8571 78.8099 11.8571C79.8088 11.8571 80.6194 11.0465 80.6194 10.0476V2.80952C80.6194 1.81067 79.8088 1 78.8099 1C77.8111 1 77.0004 1.81067 77.0004 2.80952Z"/>
</mask>
<path fill-rule="evenodd" clip-rule="evenodd" d="M102.269 40.8095H97.81C94.314 40.8095 91.4766 43.6469 91.4766 47.1429V56.1905C91.4766 59.6865 94.314 62.5238 97.81 62.5238H100.43C99.2902 63.6421 97.7232 64.3333 96.0005 64.3333H61.6194C59.8967 64.3333 58.3296 63.6421 57.1896 62.5238H59.8098C63.3058 62.5238 66.1432 59.6865 66.1432 56.1905V47.1429C66.1432 43.6469 63.3058 40.8095 59.8098 40.8095H55.3511C55.789 37.7406 58.431 35.381 61.6194 35.381H69.7622C70.7611 35.381 71.5718 34.5703 71.5718 33.5714V24.5238C71.5718 23.525 70.7611 22.7143 69.7622 22.7143H57.0955C49.1046 22.7143 42.6193 29.1996 42.6193 37.1905V40.8095H35.3811C35.3811 33.8175 29.7064 28.1429 22.7144 28.1429H2.80953C1.81067 28.1429 1 28.9535 1 29.9524C1 30.9512 1.81067 31.7619 2.80953 31.7619H22.7144C27.7087 31.7619 31.7621 35.8152 31.7621 40.8095V49.8571H26.3335V45.3333C26.3335 40.8385 22.6854 37.1905 18.1906 37.1905H2.80953C1.81067 37.1905 1 38.0011 1 39C1 39.9989 1.81067 40.8095 2.80953 40.8095H18.1906C14.6945 40.8095 11.8572 43.6469 11.8572 47.1429V56.1905C11.8572 57.9602 12.5846 59.5634 13.7608 60.7143H2.80953C1.81067 60.7143 1 61.525 1 62.5238C1 63.5227 1.81067 64.3333 2.80953 64.3333H18.1906C20.1268 64.3333 21.9073 63.6566 23.3079 62.5238H31.5811C30.7415 66.6531 27.0898 69.7619 22.7144 69.7619H2.80953C1.81067 69.7619 1 70.5726 1 71.5714C1 72.5703 1.81067 73.381 2.80953 73.381H22.7144C29.0912 73.381 34.3714 68.6581 35.2508 62.5238H42.6193C42.6193 70.5147 49.1046 77 57.0955 77H100.524C108.515 77 115.001 70.5147 115.001 62.5238H122.369C123.248 68.6581 128.529 73.381 134.905 73.381H154.81C155.809 73.381 156.62 72.5703 156.62 71.5714C156.62 70.5726 155.809 69.7619 154.81 69.7619H134.905C130.53 69.7619 126.878 66.6531 126.039 62.5238H134.312C135.712 63.6566 137.493 64.3333 139.429 64.3333H154.81C155.809 64.3333 156.62 63.5227 156.62 62.5238C156.62 61.525 155.809 60.7143 154.81 60.7143H143.859C145.035 59.5634 145.763 57.9602 145.763 56.1905V47.1429C145.763 43.6469 142.925 40.8095 139.429 40.8095H154.81C155.809 40.8095 156.62 39.9989 156.62 39C156.62 38.0011 155.809 37.1905 154.81 37.1905H139.429C134.934 37.1905 131.286 40.8385 131.286 45.3333V49.8571H125.858V40.8095C125.858 35.8152 129.911 31.7619 134.905 31.7619H154.81C155.809 31.7619 156.62 30.9512 156.62 29.9524C156.62 28.9535 155.809 28.1429 154.81 28.1429H134.905C127.913 28.1429 122.239 33.8175 122.239 40.8095H115.001V37.1905C115.001 29.1996 108.515 22.7143 100.524 22.7143H87.8576C86.8587 22.7143 86.048 23.525 86.048 24.5238V33.5714C86.048 34.5703 86.8587 35.381 87.8576 35.381H96.0005C99.1889 35.381 101.831 37.7406 102.269 40.8095ZM52.7527 62.5238H46.2383C46.2383 68.517 51.1023 73.381 57.0955 73.381H100.524C106.517 73.381 111.382 68.517 111.382 62.5238H104.867C103.217 65.7448 99.8656 67.9524 96.0005 67.9524H61.6194C57.7542 67.9524 54.4029 65.7448 52.7527 62.5238ZM55.286 49.8571C56.2848 49.8571 57.0955 50.6678 57.0955 51.6667C57.0955 52.6655 56.2848 53.4762 55.286 53.4762H22.7144C21.7155 53.4762 20.9049 52.6655 20.9049 51.6667C20.9049 50.6678 21.7155 49.8571 22.7144 49.8571V45.3333C22.7144 45.0221 22.6818 44.7217 22.6239 44.4286H18.1906C16.6923 44.4286 15.4763 45.6446 15.4763 47.1429V56.1905C15.4763 57.6888 16.6923 58.9048 18.1906 58.9048H59.8098C61.3081 58.9048 62.5241 57.6888 62.5241 56.1905V47.1429C62.5241 45.6446 61.3081 44.4286 59.8098 44.4286H55.286V49.8571ZM102.334 44.4286H97.81C96.3117 44.4286 95.0957 45.6446 95.0957 47.1429V56.1905C95.0957 57.6888 96.3117 58.9048 97.81 58.9048H139.429C140.928 58.9048 142.144 57.6888 142.144 56.1905V47.1429C142.144 45.6446 140.928 44.4286 139.429 44.4286H134.996C134.938 44.7217 134.905 45.0221 134.905 45.3333V49.8571C135.904 49.8571 136.715 50.6678 136.715 51.6667C136.715 52.6655 135.904 53.4762 134.905 53.4762H102.334C101.335 53.4762 100.524 52.6655 100.524 51.6667C100.524 50.6678 101.335 49.8571 102.334 49.8571V44.4286ZM115.001 44.4286V49.8571H122.239V44.4286H115.001ZM111.382 49.8571V37.1905C111.382 31.1973 106.517 26.3333 100.524 26.3333H89.6671V31.7619H96.0005C101.494 31.7619 105.953 36.2206 105.953 41.7143V49.8571H111.382ZM51.6669 49.8571V41.7143C51.6669 36.2206 56.1256 31.7619 61.6194 31.7619H67.9527V26.3333H57.0955C51.1023 26.3333 46.2383 31.1973 46.2383 37.1905V49.8571H51.6669ZM35.3811 44.4286V49.8571H42.6193V44.4286H35.3811ZM64.6377 9.24055L68.2567 14.6691C68.8104 15.5015 69.936 15.7259 70.7647 15.1722C71.5971 14.6185 71.8215 13.493 71.2678 12.6642L67.6487 7.23565C67.095 6.40326 65.9695 6.17886 65.1407 6.73257C64.3083 7.28628 64.0839 8.41178 64.6377 9.24055ZM89.9711 7.23565L86.352 12.6642C85.7983 13.493 86.0227 14.6185 86.8551 15.1722C87.6839 15.7259 88.8094 15.5015 89.3631 14.6691L92.9822 9.24055C93.5359 8.41178 93.3115 7.28628 92.4791 6.73257C91.6504 6.17886 90.5248 6.40326 89.9711 7.23565ZM77.0004 2.80952V10.0476C77.0004 11.0465 77.8111 11.8571 78.8099 11.8571C79.8088 11.8571 80.6194 11.0465 80.6194 10.0476V2.80952C80.6194 1.81067 79.8088 1 78.8099 1C77.8111 1 77.0004 1.81067 77.0004 2.80952Z" fill="url(#paint0_linear_2962_404)"/>
<path fill-rule="evenodd" clip-rule="evenodd" d="M102.269 40.8095H97.81C94.314 40.8095 91.4766 43.6469 91.4766 47.1429V56.1905C91.4766 59.6865 94.314 62.5238 97.81 62.5238H100.43C99.2902 63.6421 97.7232 64.3333 96.0005 64.3333H61.6194C59.8967 64.3333 58.3296 63.6421 57.1896 62.5238H59.8098C63.3058 62.5238 66.1432 59.6865 66.1432 56.1905V47.1429C66.1432 43.6469 63.3058 40.8095 59.8098 40.8095H55.3511C55.789 37.7406 58.431 35.381 61.6194 35.381H69.7622C70.7611 35.381 71.5718 34.5703 71.5718 33.5714V24.5238C71.5718 23.525 70.7611 22.7143 69.7622 22.7143H57.0955C49.1046 22.7143 42.6193 29.1996 42.6193 37.1905V40.8095H35.3811C35.3811 33.8175 29.7064 28.1429 22.7144 28.1429H2.80953C1.81067 28.1429 1 28.9535 1 29.9524C1 30.9512 1.81067 31.7619 2.80953 31.7619H22.7144C27.7087 31.7619 31.7621 35.8152 31.7621 40.8095V49.8571H26.3335V45.3333C26.3335 40.8385 22.6854 37.1905 18.1906 37.1905H2.80953C1.81067 37.1905 1 38.0011 1 39C1 39.9989 1.81067 40.8095 2.80953 40.8095H18.1906C14.6945 40.8095 11.8572 43.6469 11.8572 47.1429V56.1905C11.8572 57.9602 12.5846 59.5634 13.7608 60.7143H2.80953C1.81067 60.7143 1 61.525 1 62.5238C1 63.5227 1.81067 64.3333 2.80953 64.3333H18.1906C20.1268 64.3333 21.9073 63.6566 23.3079 62.5238H31.5811C30.7415 66.6531 27.0898 69.7619 22.7144 69.7619H2.80953C1.81067 69.7619 1 70.5726 1 71.5714C1 72.5703 1.81067 73.381 2.80953 73.381H22.7144C29.0912 73.381 34.3714 68.6581 35.2508 62.5238H42.6193C42.6193 70.5147 49.1046 77 57.0955 77H100.524C108.515 77 115.001 70.5147 115.001 62.5238H122.369C123.248 68.6581 128.529 73.381 134.905 73.381H154.81C155.809 73.381 156.62 72.5703 156.62 71.5714C156.62 70.5726 155.809 69.7619 154.81 69.7619H134.905C130.53 69.7619 126.878 66.6531 126.039 62.5238H134.312C135.712 63.6566 137.493 64.3333 139.429 64.3333H154.81C155.809 64.3333 156.62 63.5227 156.62 62.5238C156.62 61.525 155.809 60.7143 154.81 60.7143H143.859C145.035 59.5634 145.763 57.9602 145.763 56.1905V47.1429C145.763 43.6469 142.925 40.8095 139.429 40.8095H154.81C155.809 40.8095 156.62 39.9989 156.62 39C156.62 38.0011 155.809 37.1905 154.81 37.1905H139.429C134.934 37.1905 131.286 40.8385 131.286 45.3333V49.8571H125.858V40.8095C125.858 35.8152 129.911 31.7619 134.905 31.7619H154.81C155.809 31.7619 156.62 30.9512 156.62 29.9524C156.62 28.9535 155.809 28.1429 154.81 28.1429H134.905C127.913 28.1429 122.239 33.8175 122.239 40.8095H115.001V37.1905C115.001 29.1996 108.515 22.7143 100.524 22.7143H87.8576C86.8587 22.7143 86.048 23.525 86.048 24.5238V33.5714C86.048 34.5703 86.8587 35.381 87.8576 35.381H96.0005C99.1889 35.381 101.831 37.7406 102.269 40.8095ZM52.7527 62.5238H46.2383C46.2383 68.517 51.1023 73.381 57.0955 73.381H100.524C106.517 73.381 111.382 68.517 111.382 62.5238H104.867C103.217 65.7448 99.8656 67.9524 96.0005 67.9524H61.6194C57.7542 67.9524 54.4029 65.7448 52.7527 62.5238ZM55.286 49.8571C56.2848 49.8571 57.0955 50.6678 57.0955 51.6667C57.0955 52.6655 56.2848 53.4762 55.286 53.4762H22.7144C21.7155 53.4762 20.9049 52.6655 20.9049 51.6667C20.9049 50.6678 21.7155 49.8571 22.7144 49.8571V45.3333C22.7144 45.0221 22.6818 44.7217 22.6239 44.4286H18.1906C16.6923 44.4286 15.4763 45.6446 15.4763 47.1429V56.1905C15.4763 57.6888 16.6923 58.9048 18.1906 58.9048H59.8098C61.3081 58.9048 62.5241 57.6888 62.5241 56.1905V47.1429C62.5241 45.6446 61.3081 44.4286 59.8098 44.4286H55.286V49.8571ZM102.334 44.4286H97.81C96.3117 44.4286 95.0957 45.6446 95.0957 47.1429V56.1905C95.0957 57.6888 96.3117 58.9048 97.81 58.9048H139.429C140.928 58.9048 142.144 57.6888 142.144 56.1905V47.1429C142.144 45.6446 140.928 44.4286 139.429 44.4286H134.996C134.938 44.7217 134.905 45.0221 134.905 45.3333V49.8571C135.904 49.8571 136.715 50.6678 136.715 51.6667C136.715 52.6655 135.904 53.4762 134.905 53.4762H102.334C101.335 53.4762 100.524 52.6655 100.524 51.6667C100.524 50.6678 101.335 49.8571 102.334 49.8571V44.4286ZM115.001 44.4286V49.8571H122.239V44.4286H115.001ZM111.382 49.8571V37.1905C111.382 31.1973 106.517 26.3333 100.524 26.3333H89.6671V31.7619H96.0005C101.494 31.7619 105.953 36.2206 105.953 41.7143V49.8571H111.382ZM51.6669 49.8571V41.7143C51.6669 36.2206 56.1256 31.7619 61.6194 31.7619H67.9527V26.3333H57.0955C51.1023 26.3333 46.2383 31.1973 46.2383 37.1905V49.8571H51.6669ZM35.3811 44.4286V49.8571H42.6193V44.4286H35.3811ZM64.6377 9.24055L68.2567 14.6691C68.8104 15.5015 69.936 15.7259 70.7647 15.1722C71.5971 14.6185 71.8215 13.493 71.2678 12.6642L67.6487 7.23565C67.095 6.40326 65.9695 6.17886 65.1407 6.73257C64.3083 7.28628 64.0839 8.41178 64.6377 9.24055ZM89.9711 7.23565L86.352 12.6642C85.7983 13.493 86.0227 14.6185 86.8551 15.1722C87.6839 15.7259 88.8094 15.5015 89.3631 14.6691L92.9822 9.24055C93.5359 8.41178 93.3115 7.28628 92.4791 6.73257C91.6504 6.17886 90.5248 6.40326 89.9711 7.23565ZM77.0004 2.80952V10.0476C77.0004 11.0465 77.8111 11.8571 78.8099 11.8571C79.8088 11.8571 80.6194 11.0465 80.6194 10.0476V2.80952C80.6194 1.81067 79.8088 1 78.8099 1C77.8111 1 77.0004 1.81067 77.0004 2.80952Z" stroke="url(#paint1_linear_2962_404)" stroke-width="1.80952" mask="url(#path-1-outside-1_2962_404)"/>
<defs>
<linearGradient id="paint0_linear_2962_404" x1="11.0184" y1="39" x2="142.594" y2="39" gradientUnits="userSpaceOnUse">
<stop stop-color="#AA92E5"/>
<stop offset="1" stop-color="#5FABD5"/>
</linearGradient>
<linearGradient id="paint1_linear_2962_404" x1="11.0184" y1="39" x2="142.594" y2="39" gradientUnits="userSpaceOnUse">
<stop stop-color="#AA92E5"/>
<stop offset="1" stop-color="#5FABD5"/>
</linearGradient>
</defs>
</svg>
