<svg width="85" height="95" viewBox="0 0 85 95" fill="none" xmlns="http://www.w3.org/2000/svg">
<path d="M42.5095 94.3683C34.1497 93.8228 28.0691 88.0086 24.04 79.5771C3.55714 81.6068 -7.26777 65.915 5.62469 47.6988C-6.44291 30.9917 1.47659 13.622 23.9296 15.6766C32.6276 -3.47374 51.3599 -4.64175 60.8523 15.6977C83.4157 13.482 91.437 30.8656 79.377 47.6821C92.4643 66.1483 81.2418 81.5608 60.7971 79.5441C56.2937 88.7115 49.8152 94.3688 42.5084 94.3688L42.5095 94.3683ZM31.1098 78.4903C37.1735 89.7168 47.1274 91.0493 53.7024 78.4311C49.8842 77.56 46.1419 76.3845 42.5095 74.9172C38.8138 76.4141 34.9997 77.6066 31.1098 78.4903ZM10.1322 53.2802C2.60552 65.1659 8.60144 73.4286 21.4312 72.9295V72.9253C20.2388 69.107 19.3592 65.1957 18.8011 61.229C15.71 58.8103 12.8093 56.1548 10.1369 53.2794L10.1322 53.2802ZM63.512 72.8873C76.2984 73.3102 82.5313 65.331 74.8738 53.2715L74.878 53.2673C72.2395 56.113 69.381 58.7432 66.3323 61.1364C65.7234 65.1239 64.7847 69.0564 63.5161 72.8836L63.512 72.8873ZM26.8177 66.8829C27.2575 68.7011 27.7606 70.4559 28.3357 72.1177C30.0566 71.7794 31.82 71.3354 33.6128 70.8069C31.2999 69.5849 29.0333 68.2783 26.8219 66.8829H26.8177ZM51.4108 70.7984C53.1656 71.3143 54.8908 71.7456 56.578 72.0755C57.1742 70.4517 57.7155 68.7138 58.1933 66.8786C55.9902 68.2741 53.728 69.5806 51.415 70.7984H51.4108ZM25.1983 57.5336C30.5812 61.5 36.3869 64.8531 42.5095 67.534C48.6915 64.8277 54.5479 61.4365 59.9733 57.4237C60.7471 50.7935 60.7429 44.0961 59.9522 37.4691C54.5566 33.4351 48.6997 30.0565 42.51 27.3968C36.3787 30.0312 30.5734 33.3716 25.2194 37.3549C24.454 44.0612 24.4499 50.8265 25.1983 57.5336ZM14.2132 47.6051C15.3464 48.9032 16.5896 50.1887 17.9174 51.4573C17.8159 48.8398 17.8159 46.2224 17.9174 43.6007C16.5853 44.9115 15.3507 46.2478 14.2132 47.6051ZM67.2801 43.7741C67.3816 46.2434 67.3816 48.8187 67.2801 51.2881C68.5445 50.0745 69.7242 48.8482 70.8067 47.6051C69.7242 46.3112 68.5487 45.0342 67.2801 43.7741ZM7.90334 27.4349C5.8229 31.7607 6.91388 36.8475 10.0599 42.015H10.0556C12.7408 39.0086 15.6711 36.2347 18.8213 33.7187C19.3668 29.875 20.2168 26.082 21.3541 22.3742C14.7831 22.2727 9.89923 24.0867 7.89878 27.4357L7.90334 27.4349ZM66.3113 33.8072H66.3071C69.415 36.2978 72.3115 39.0421 74.9628 42.0147C81.7368 31.1097 77.8804 21.705 63.5631 22.3729C64.7935 26.1024 65.7112 29.925 66.3074 33.8062L66.3113 33.8072ZM28.2883 23.0584C27.7597 24.623 27.2861 26.2678 26.8717 27.972C28.9775 26.64 31.1848 25.3629 33.392 24.2086C31.6625 23.7392 29.9542 23.3544 28.2883 23.0584ZM51.6257 24.2044C53.8244 25.3545 56.0275 26.6273 58.1291 27.955C57.6682 26.2383 57.1565 24.6145 56.5941 23.0795C54.9704 23.3755 53.3085 23.7476 51.6257 24.2086V24.2044ZM31.0291 16.6607C34.9447 17.4768 38.7842 18.6143 42.5089 20.0646C46.1455 18.6523 49.8876 17.5318 53.7062 16.7199C47.0844 4.15761 37.0673 5.20544 31.0291 16.6607ZM31.6127 47.5408C31.6803 53.5114 36.5389 58.3192 42.509 58.3192C48.4792 58.3192 53.3383 53.5114 53.401 47.5408C53.3376 41.5702 48.4791 36.7624 42.509 36.7624C36.539 36.7624 31.6798 41.5702 31.6127 47.5408Z" fill="url(#paint0_linear_2962_399)"/>
<defs>
<linearGradient id="paint0_linear_2962_399" x1="5.4721" y1="47.6221" x2="77.3391" y2="47.6221" gradientUnits="userSpaceOnUse">
<stop stop-color="#AA92E5"/>
<stop offset="1" stop-color="#5FABD5"/>
</linearGradient>
</defs>
</svg>
