<svg width="96" height="116" viewBox="0 0 96 116" fill="none" xmlns="http://www.w3.org/2000/svg">
<mask id="path-1-outside-1_2978_331" maskUnits="userSpaceOnUse" x="-1" y="0" width="97" height="116" fill="black">
<rect fill="white" x="-1" width="97" height="116"/>
<path d="M25.4397 86.2632C25.1002 86.8554 24.4807 87.1875 23.8426 87.1875C23.5328 87.1875 23.2194 87.1094 22.9307 86.9446C14.8459 82.3156 8.56647 75.3596 4.76881 66.8276C-5.0159 44.8358 4.91254 18.9832 26.9043 9.19603C33.6162 6.20871 40.8646 4.97462 48.0981 5.55697L46.6534 4.15809C45.9248 3.45184 45.905 2.28838 46.6112 1.55982C47.3175 0.830027 48.4809 0.811442 49.2095 1.5177L54.7517 6.88398C55.1581 7.27676 55.3601 7.83433 55.3006 8.39685C55.2411 8.95814 54.9277 9.46243 54.4482 9.76228L47.9097 13.8573C47.6062 14.0469 47.2692 14.1373 46.9359 14.1373C46.3238 14.1373 45.7253 13.8313 45.3759 13.275C44.8369 12.4151 45.0984 11.2813 45.9583 10.7424L48.3149 9.26666C41.5225 8.63227 34.7016 9.74989 28.3973 12.5563C8.25919 21.5171 -0.834134 45.1939 8.12909 65.3333C11.6058 73.1467 17.3562 79.5166 24.7583 83.7553C25.6392 84.2596 25.944 85.3822 25.4397 86.2632ZM91.2056 49.1142C87.4079 40.5822 81.1284 33.625 73.0437 28.9971C72.1627 28.4929 71.0402 28.7977 70.5359 29.6786C70.0316 30.5596 70.3364 31.6822 71.2173 32.1864C78.6194 36.424 84.3698 42.7939 87.8478 50.6085C92.1894 60.3647 92.4719 71.2274 88.6432 81.1955C84.8146 91.1648 77.3333 99.0451 67.577 103.387C61.2753 106.191 54.4506 107.31 47.6595 106.676L50.0161 105.201C50.876 104.662 51.1374 103.528 50.5985 102.668C50.0595 101.808 48.9258 101.547 48.0659 102.086L41.5274 106.181C41.0492 106.481 40.7345 106.984 40.675 107.546C40.6155 108.109 40.8187 108.666 41.2239 109.059L46.7661 114.425C47.123 114.771 47.5839 114.943 48.0448 114.943C48.5255 114.943 49.0051 114.756 49.3656 114.383C50.0719 113.655 50.0533 112.491 49.3235 111.785L47.8788 110.386C49.0385 110.479 50.1983 110.527 51.3555 110.527C57.4219 110.527 63.4399 109.254 69.0726 106.747C79.7258 102.006 87.8948 93.4 92.0754 82.5151C96.2546 71.6288 95.9461 59.7675 91.2056 49.1142ZM44.6535 80.9786H40.5845C39.8238 80.9786 39.1423 80.5103 38.8697 79.8016L37.2924 75.7041C35.108 75.1006 33.0103 74.2321 31.0352 73.1095L27.0195 74.8937C26.3256 75.2022 25.5116 75.0511 24.9739 74.5133L19.2197 68.7592C18.682 68.2215 18.5308 67.4087 18.8394 66.7136L20.6223 62.6991C19.501 60.724 18.6312 58.6263 18.0278 56.4394L13.9315 54.8621C13.2215 54.5896 12.7544 53.9068 12.7544 53.1473V45.0105C12.7544 44.2498 13.2228 43.5683 13.9315 43.2957L18.029 41.7184C18.6324 39.5327 19.5022 37.435 20.6236 35.46L18.8406 31.4443C18.5321 30.7492 18.6832 29.9363 19.221 29.3986L24.9751 23.6445C25.5128 23.1067 26.3256 22.9556 27.0207 23.2641L31.0365 25.0471C33.0115 23.9258 35.1092 23.0559 37.2936 22.4525L38.8709 18.355C39.1435 17.6451 39.8262 17.1779 40.5858 17.1779H44.6548C45.6696 17.1779 46.4923 18.0007 46.4923 19.0154V34.8876C46.4923 35.9023 45.6696 36.7251 44.6548 36.7251C37.8438 36.7251 32.3015 42.2673 32.3015 49.0783C32.3015 55.8893 37.8425 61.4315 44.6548 61.4315C45.6696 61.4315 46.4923 62.2543 46.4923 63.269V79.1411C46.491 80.1559 45.6683 80.9786 44.6535 80.9786ZM42.8148 65.0025C34.8391 64.088 28.6241 57.2956 28.6241 49.0783C28.6241 40.861 34.8391 34.0685 42.8148 33.1541V20.8529H41.8459L40.3813 24.6568C40.1633 25.2218 39.6813 25.6443 39.0915 25.7843C36.627 26.3704 34.2803 27.3443 32.1169 28.6762C31.6002 28.9947 30.9609 29.0368 30.407 28.7915L26.6788 27.1361L22.7101 31.1048L24.3655 34.833C24.6121 35.3869 24.5687 36.0262 24.2503 36.5429C22.9183 38.7063 21.9444 41.053 21.3583 43.5187C21.2183 44.1085 20.7958 44.5905 20.2308 44.8086L16.4269 46.2731V51.886L20.2296 53.3493C20.7946 53.5673 21.2171 54.0493 21.3571 54.6391C21.9444 57.106 22.917 59.4528 24.249 61.6162C24.5674 62.1316 24.6096 62.7722 24.3642 63.326L22.7089 67.0531L26.6788 71.0217L30.407 69.3651C30.9609 69.1198 31.6002 69.1619 32.1169 69.4803C34.2803 70.8123 36.627 71.785 39.0915 72.3723C39.6813 72.5123 40.1633 72.9348 40.3813 73.4998L41.8459 77.3037H42.8148V65.0025ZM51.3221 34.9631H55.3911C56.1518 34.9631 56.8333 35.4315 57.1059 36.1402L58.6832 40.2377C60.8676 40.8411 62.9653 41.7097 64.9404 42.8323L68.9561 41.0493C69.6512 40.7408 70.464 40.8919 71.0018 41.4297L76.7559 47.1838C77.2936 47.7215 77.4448 48.5344 77.1362 49.2295L75.3533 53.244C76.4758 55.219 77.3456 57.3179 77.9478 59.5036L82.0441 61.0809C82.7541 61.3535 83.2212 62.0362 83.2212 62.7957V70.9325C83.2212 71.6933 82.7528 72.3747 82.0441 72.6473L77.9466 74.2246C77.3432 76.4091 76.4746 78.5068 75.352 80.4818L77.1362 84.4975C77.4448 85.1926 77.2936 86.0054 76.7559 86.5432L71.0018 92.2973C70.464 92.835 69.6512 92.9862 68.9561 92.6777L64.9416 90.8947C62.9666 92.016 60.8676 92.8871 58.682 93.4892L57.1047 97.5868C56.8321 98.2967 56.1494 98.7638 55.3898 98.7638H51.3208C50.3061 98.7638 49.4833 97.9411 49.4833 96.9264V81.0542C49.4833 80.0395 50.3061 79.2167 51.3208 79.2167C58.1318 79.2167 63.6741 73.6745 63.6741 66.8635C63.6741 60.0525 58.1331 54.5103 51.3208 54.5103C50.3061 54.5103 49.4833 53.6875 49.4833 52.6728V36.8006C49.4846 35.7859 50.3073 34.9631 51.3221 34.9631ZM53.1608 50.9393C61.1365 51.8537 67.3515 58.6474 67.3515 66.8635C67.3515 75.0796 61.1365 81.872 53.1608 82.7876V95.0889H54.1297L55.593 91.2862C55.8111 90.7212 56.2931 90.2987 56.8829 90.1587C59.3486 89.5714 61.6953 88.5987 63.8587 87.2668C64.3754 86.9483 65.0147 86.905 65.5686 87.1516L69.2956 88.8069L73.2642 84.8383L71.6089 81.11C71.3623 80.5561 71.4057 79.9168 71.7241 79.4001C73.0561 77.2367 74.0287 74.89 74.616 72.4255C74.7561 71.8358 75.1786 71.3538 75.7436 71.1357L79.5474 69.6712V64.0583L75.7448 62.595C75.1798 62.3769 74.7573 61.8949 74.6173 61.3052C74.0312 58.8395 73.0573 56.4915 71.7254 54.3294C71.4069 53.8139 71.3648 53.1733 71.6101 52.6195L73.2655 48.8924L69.2968 44.9238L65.5686 46.5791C65.0147 46.8257 64.3754 46.7824 63.8587 46.4639C61.6941 45.1319 59.3486 44.1593 56.8841 43.572C56.2943 43.432 55.8124 43.0095 55.5943 42.4445L54.1297 38.6406H53.1608V50.9393Z"/>
</mask>
<path d="M25.4397 86.2632C25.1002 86.8554 24.4807 87.1875 23.8426 87.1875C23.5328 87.1875 23.2194 87.1094 22.9307 86.9446C14.8459 82.3156 8.56647 75.3596 4.76881 66.8276C-5.0159 44.8358 4.91254 18.9832 26.9043 9.19603C33.6162 6.20871 40.8646 4.97462 48.0981 5.55697L46.6534 4.15809C45.9248 3.45184 45.905 2.28838 46.6112 1.55982C47.3175 0.830027 48.4809 0.811442 49.2095 1.5177L54.7517 6.88398C55.1581 7.27676 55.3601 7.83433 55.3006 8.39685C55.2411 8.95814 54.9277 9.46243 54.4482 9.76228L47.9097 13.8573C47.6062 14.0469 47.2692 14.1373 46.9359 14.1373C46.3238 14.1373 45.7253 13.8313 45.3759 13.275C44.8369 12.4151 45.0984 11.2813 45.9583 10.7424L48.3149 9.26666C41.5225 8.63227 34.7016 9.74989 28.3973 12.5563C8.25919 21.5171 -0.834134 45.1939 8.12909 65.3333C11.6058 73.1467 17.3562 79.5166 24.7583 83.7553C25.6392 84.2596 25.944 85.3822 25.4397 86.2632ZM91.2056 49.1142C87.4079 40.5822 81.1284 33.625 73.0437 28.9971C72.1627 28.4929 71.0402 28.7977 70.5359 29.6786C70.0316 30.5596 70.3364 31.6822 71.2173 32.1864C78.6194 36.424 84.3698 42.7939 87.8478 50.6085C92.1894 60.3647 92.4719 71.2274 88.6432 81.1955C84.8146 91.1648 77.3333 99.0451 67.577 103.387C61.2753 106.191 54.4506 107.31 47.6595 106.676L50.0161 105.201C50.876 104.662 51.1374 103.528 50.5985 102.668C50.0595 101.808 48.9258 101.547 48.0659 102.086L41.5274 106.181C41.0492 106.481 40.7345 106.984 40.675 107.546C40.6155 108.109 40.8187 108.666 41.2239 109.059L46.7661 114.425C47.123 114.771 47.5839 114.943 48.0448 114.943C48.5255 114.943 49.0051 114.756 49.3656 114.383C50.0719 113.655 50.0533 112.491 49.3235 111.785L47.8788 110.386C49.0385 110.479 50.1983 110.527 51.3555 110.527C57.4219 110.527 63.4399 109.254 69.0726 106.747C79.7258 102.006 87.8948 93.4 92.0754 82.5151C96.2546 71.6288 95.9461 59.7675 91.2056 49.1142ZM44.6535 80.9786H40.5845C39.8238 80.9786 39.1423 80.5103 38.8697 79.8016L37.2924 75.7041C35.108 75.1006 33.0103 74.2321 31.0352 73.1095L27.0195 74.8937C26.3256 75.2022 25.5116 75.0511 24.9739 74.5133L19.2197 68.7592C18.682 68.2215 18.5308 67.4087 18.8394 66.7136L20.6223 62.6991C19.501 60.724 18.6312 58.6263 18.0278 56.4394L13.9315 54.8621C13.2215 54.5896 12.7544 53.9068 12.7544 53.1473V45.0105C12.7544 44.2498 13.2228 43.5683 13.9315 43.2957L18.029 41.7184C18.6324 39.5327 19.5022 37.435 20.6236 35.46L18.8406 31.4443C18.5321 30.7492 18.6832 29.9363 19.221 29.3986L24.9751 23.6445C25.5128 23.1067 26.3256 22.9556 27.0207 23.2641L31.0365 25.0471C33.0115 23.9258 35.1092 23.0559 37.2936 22.4525L38.8709 18.355C39.1435 17.6451 39.8262 17.1779 40.5858 17.1779H44.6548C45.6696 17.1779 46.4923 18.0007 46.4923 19.0154V34.8876C46.4923 35.9023 45.6696 36.7251 44.6548 36.7251C37.8438 36.7251 32.3015 42.2673 32.3015 49.0783C32.3015 55.8893 37.8425 61.4315 44.6548 61.4315C45.6696 61.4315 46.4923 62.2543 46.4923 63.269V79.1411C46.491 80.1559 45.6683 80.9786 44.6535 80.9786ZM42.8148 65.0025C34.8391 64.088 28.6241 57.2956 28.6241 49.0783C28.6241 40.861 34.8391 34.0685 42.8148 33.1541V20.8529H41.8459L40.3813 24.6568C40.1633 25.2218 39.6813 25.6443 39.0915 25.7843C36.627 26.3704 34.2803 27.3443 32.1169 28.6762C31.6002 28.9947 30.9609 29.0368 30.407 28.7915L26.6788 27.1361L22.7101 31.1048L24.3655 34.833C24.6121 35.3869 24.5687 36.0262 24.2503 36.5429C22.9183 38.7063 21.9444 41.053 21.3583 43.5187C21.2183 44.1085 20.7958 44.5905 20.2308 44.8086L16.4269 46.2731V51.886L20.2296 53.3493C20.7946 53.5673 21.2171 54.0493 21.3571 54.6391C21.9444 57.106 22.917 59.4528 24.249 61.6162C24.5674 62.1316 24.6096 62.7722 24.3642 63.326L22.7089 67.0531L26.6788 71.0217L30.407 69.3651C30.9609 69.1198 31.6002 69.1619 32.1169 69.4803C34.2803 70.8123 36.627 71.785 39.0915 72.3723C39.6813 72.5123 40.1633 72.9348 40.3813 73.4998L41.8459 77.3037H42.8148V65.0025ZM51.3221 34.9631H55.3911C56.1518 34.9631 56.8333 35.4315 57.1059 36.1402L58.6832 40.2377C60.8676 40.8411 62.9653 41.7097 64.9404 42.8323L68.9561 41.0493C69.6512 40.7408 70.464 40.8919 71.0018 41.4297L76.7559 47.1838C77.2936 47.7215 77.4448 48.5344 77.1362 49.2295L75.3533 53.244C76.4758 55.219 77.3456 57.3179 77.9478 59.5036L82.0441 61.0809C82.7541 61.3535 83.2212 62.0362 83.2212 62.7957V70.9325C83.2212 71.6933 82.7528 72.3747 82.0441 72.6473L77.9466 74.2246C77.3432 76.4091 76.4746 78.5068 75.352 80.4818L77.1362 84.4975C77.4448 85.1926 77.2936 86.0054 76.7559 86.5432L71.0018 92.2973C70.464 92.835 69.6512 92.9862 68.9561 92.6777L64.9416 90.8947C62.9666 92.016 60.8676 92.8871 58.682 93.4892L57.1047 97.5868C56.8321 98.2967 56.1494 98.7638 55.3898 98.7638H51.3208C50.3061 98.7638 49.4833 97.9411 49.4833 96.9264V81.0542C49.4833 80.0395 50.3061 79.2167 51.3208 79.2167C58.1318 79.2167 63.6741 73.6745 63.6741 66.8635C63.6741 60.0525 58.1331 54.5103 51.3208 54.5103C50.3061 54.5103 49.4833 53.6875 49.4833 52.6728V36.8006C49.4846 35.7859 50.3073 34.9631 51.3221 34.9631ZM53.1608 50.9393C61.1365 51.8537 67.3515 58.6474 67.3515 66.8635C67.3515 75.0796 61.1365 81.872 53.1608 82.7876V95.0889H54.1297L55.593 91.2862C55.8111 90.7212 56.2931 90.2987 56.8829 90.1587C59.3486 89.5714 61.6953 88.5987 63.8587 87.2668C64.3754 86.9483 65.0147 86.905 65.5686 87.1516L69.2956 88.8069L73.2642 84.8383L71.6089 81.11C71.3623 80.5561 71.4057 79.9168 71.7241 79.4001C73.0561 77.2367 74.0287 74.89 74.616 72.4255C74.7561 71.8358 75.1786 71.3538 75.7436 71.1357L79.5474 69.6712V64.0583L75.7448 62.595C75.1798 62.3769 74.7573 61.8949 74.6173 61.3052C74.0312 58.8395 73.0573 56.4915 71.7254 54.3294C71.4069 53.8139 71.3648 53.1733 71.6101 52.6195L73.2655 48.8924L69.2968 44.9238L65.5686 46.5791C65.0147 46.8257 64.3754 46.7824 63.8587 46.4639C61.6941 45.1319 59.3486 44.1593 56.8841 43.572C56.2943 43.432 55.8124 43.0095 55.5943 42.4445L54.1297 38.6406H53.1608V50.9393Z" fill="url(#paint0_linear_2978_331)"/>
<path d="M25.4397 86.2632C25.1002 86.8554 24.4807 87.1875 23.8426 87.1875C23.5328 87.1875 23.2194 87.1094 22.9307 86.9446C14.8459 82.3156 8.56647 75.3596 4.76881 66.8276C-5.0159 44.8358 4.91254 18.9832 26.9043 9.19603C33.6162 6.20871 40.8646 4.97462 48.0981 5.55697L46.6534 4.15809C45.9248 3.45184 45.905 2.28838 46.6112 1.55982C47.3175 0.830027 48.4809 0.811442 49.2095 1.5177L54.7517 6.88398C55.1581 7.27676 55.3601 7.83433 55.3006 8.39685C55.2411 8.95814 54.9277 9.46243 54.4482 9.76228L47.9097 13.8573C47.6062 14.0469 47.2692 14.1373 46.9359 14.1373C46.3238 14.1373 45.7253 13.8313 45.3759 13.275C44.8369 12.4151 45.0984 11.2813 45.9583 10.7424L48.3149 9.26666C41.5225 8.63227 34.7016 9.74989 28.3973 12.5563C8.25919 21.5171 -0.834134 45.1939 8.12909 65.3333C11.6058 73.1467 17.3562 79.5166 24.7583 83.7553C25.6392 84.2596 25.944 85.3822 25.4397 86.2632ZM91.2056 49.1142C87.4079 40.5822 81.1284 33.625 73.0437 28.9971C72.1627 28.4929 71.0402 28.7977 70.5359 29.6786C70.0316 30.5596 70.3364 31.6822 71.2173 32.1864C78.6194 36.424 84.3698 42.7939 87.8478 50.6085C92.1894 60.3647 92.4719 71.2274 88.6432 81.1955C84.8146 91.1648 77.3333 99.0451 67.577 103.387C61.2753 106.191 54.4506 107.31 47.6595 106.676L50.0161 105.201C50.876 104.662 51.1374 103.528 50.5985 102.668C50.0595 101.808 48.9258 101.547 48.0659 102.086L41.5274 106.181C41.0492 106.481 40.7345 106.984 40.675 107.546C40.6155 108.109 40.8187 108.666 41.2239 109.059L46.7661 114.425C47.123 114.771 47.5839 114.943 48.0448 114.943C48.5255 114.943 49.0051 114.756 49.3656 114.383C50.0719 113.655 50.0533 112.491 49.3235 111.785L47.8788 110.386C49.0385 110.479 50.1983 110.527 51.3555 110.527C57.4219 110.527 63.4399 109.254 69.0726 106.747C79.7258 102.006 87.8948 93.4 92.0754 82.5151C96.2546 71.6288 95.9461 59.7675 91.2056 49.1142ZM44.6535 80.9786H40.5845C39.8238 80.9786 39.1423 80.5103 38.8697 79.8016L37.2924 75.7041C35.108 75.1006 33.0103 74.2321 31.0352 73.1095L27.0195 74.8937C26.3256 75.2022 25.5116 75.0511 24.9739 74.5133L19.2197 68.7592C18.682 68.2215 18.5308 67.4087 18.8394 66.7136L20.6223 62.6991C19.501 60.724 18.6312 58.6263 18.0278 56.4394L13.9315 54.8621C13.2215 54.5896 12.7544 53.9068 12.7544 53.1473V45.0105C12.7544 44.2498 13.2228 43.5683 13.9315 43.2957L18.029 41.7184C18.6324 39.5327 19.5022 37.435 20.6236 35.46L18.8406 31.4443C18.5321 30.7492 18.6832 29.9363 19.221 29.3986L24.9751 23.6445C25.5128 23.1067 26.3256 22.9556 27.0207 23.2641L31.0365 25.0471C33.0115 23.9258 35.1092 23.0559 37.2936 22.4525L38.8709 18.355C39.1435 17.6451 39.8262 17.1779 40.5858 17.1779H44.6548C45.6696 17.1779 46.4923 18.0007 46.4923 19.0154V34.8876C46.4923 35.9023 45.6696 36.7251 44.6548 36.7251C37.8438 36.7251 32.3015 42.2673 32.3015 49.0783C32.3015 55.8893 37.8425 61.4315 44.6548 61.4315C45.6696 61.4315 46.4923 62.2543 46.4923 63.269V79.1411C46.491 80.1559 45.6683 80.9786 44.6535 80.9786ZM42.8148 65.0025C34.8391 64.088 28.6241 57.2956 28.6241 49.0783C28.6241 40.861 34.8391 34.0685 42.8148 33.1541V20.8529H41.8459L40.3813 24.6568C40.1633 25.2218 39.6813 25.6443 39.0915 25.7843C36.627 26.3704 34.2803 27.3443 32.1169 28.6762C31.6002 28.9947 30.9609 29.0368 30.407 28.7915L26.6788 27.1361L22.7101 31.1048L24.3655 34.833C24.6121 35.3869 24.5687 36.0262 24.2503 36.5429C22.9183 38.7063 21.9444 41.053 21.3583 43.5187C21.2183 44.1085 20.7958 44.5905 20.2308 44.8086L16.4269 46.2731V51.886L20.2296 53.3493C20.7946 53.5673 21.2171 54.0493 21.3571 54.6391C21.9444 57.106 22.917 59.4528 24.249 61.6162C24.5674 62.1316 24.6096 62.7722 24.3642 63.326L22.7089 67.0531L26.6788 71.0217L30.407 69.3651C30.9609 69.1198 31.6002 69.1619 32.1169 69.4803C34.2803 70.8123 36.627 71.785 39.0915 72.3723C39.6813 72.5123 40.1633 72.9348 40.3813 73.4998L41.8459 77.3037H42.8148V65.0025ZM51.3221 34.9631H55.3911C56.1518 34.9631 56.8333 35.4315 57.1059 36.1402L58.6832 40.2377C60.8676 40.8411 62.9653 41.7097 64.9404 42.8323L68.9561 41.0493C69.6512 40.7408 70.464 40.8919 71.0018 41.4297L76.7559 47.1838C77.2936 47.7215 77.4448 48.5344 77.1362 49.2295L75.3533 53.244C76.4758 55.219 77.3456 57.3179 77.9478 59.5036L82.0441 61.0809C82.7541 61.3535 83.2212 62.0362 83.2212 62.7957V70.9325C83.2212 71.6933 82.7528 72.3747 82.0441 72.6473L77.9466 74.2246C77.3432 76.4091 76.4746 78.5068 75.352 80.4818L77.1362 84.4975C77.4448 85.1926 77.2936 86.0054 76.7559 86.5432L71.0018 92.2973C70.464 92.835 69.6512 92.9862 68.9561 92.6777L64.9416 90.8947C62.9666 92.016 60.8676 92.8871 58.682 93.4892L57.1047 97.5868C56.8321 98.2967 56.1494 98.7638 55.3898 98.7638H51.3208C50.3061 98.7638 49.4833 97.9411 49.4833 96.9264V81.0542C49.4833 80.0395 50.3061 79.2167 51.3208 79.2167C58.1318 79.2167 63.6741 73.6745 63.6741 66.8635C63.6741 60.0525 58.1331 54.5103 51.3208 54.5103C50.3061 54.5103 49.4833 53.6875 49.4833 52.6728V36.8006C49.4846 35.7859 50.3073 34.9631 51.3221 34.9631ZM53.1608 50.9393C61.1365 51.8537 67.3515 58.6474 67.3515 66.8635C67.3515 75.0796 61.1365 81.872 53.1608 82.7876V95.0889H54.1297L55.593 91.2862C55.8111 90.7212 56.2931 90.2987 56.8829 90.1587C59.3486 89.5714 61.6953 88.5987 63.8587 87.2668C64.3754 86.9483 65.0147 86.905 65.5686 87.1516L69.2956 88.8069L73.2642 84.8383L71.6089 81.11C71.3623 80.5561 71.4057 79.9168 71.7241 79.4001C73.0561 77.2367 74.0287 74.89 74.616 72.4255C74.7561 71.8358 75.1786 71.3538 75.7436 71.1357L79.5474 69.6712V64.0583L75.7448 62.595C75.1798 62.3769 74.7573 61.8949 74.6173 61.3052C74.0312 58.8395 73.0573 56.4915 71.7254 54.3294C71.4069 53.8139 71.3648 53.1733 71.6101 52.6195L73.2655 48.8924L69.2968 44.9238L65.5686 46.5791C65.0147 46.8257 64.3754 46.7824 63.8587 46.4639C61.6941 45.1319 59.3486 44.1593 56.8841 43.572C56.2943 43.432 55.8124 43.0095 55.5943 42.4445L54.1297 38.6406H53.1608V50.9393Z" stroke="url(#paint1_linear_2978_331)" stroke-width="2" mask="url(#path-1-outside-1_2978_331)"/>
<defs>
<linearGradient id="paint0_linear_2978_331" x1="7.0515" y1="57.9716" x2="86.5279" y2="57.9716" gradientUnits="userSpaceOnUse">
<stop stop-color="#AA92E5"/>
<stop offset="1" stop-color="#5FABD5"/>
</linearGradient>
<linearGradient id="paint1_linear_2978_331" x1="7.0515" y1="57.9716" x2="86.5279" y2="57.9716" gradientUnits="userSpaceOnUse">
<stop stop-color="#AA92E5"/>
<stop offset="1" stop-color="#5FABD5"/>
</linearGradient>
</defs>
</svg>
