<svg width="300" height="62" viewBox="0 0 300 62" fill="none" xmlns="http://www.w3.org/2000/svg">
<path d="M76.184 40.32C74.5627 40.3413 73.1547 40.0853 71.96 39.552C70.7653 39.0187 69.624 38.2187 68.536 37.152C68.4293 37.0667 68.3333 36.96 68.248 36.832C68.184 36.704 68.152 36.5547 68.152 36.384C68.152 36.128 68.248 35.8933 68.44 35.68C68.6533 35.4667 68.888 35.36 69.144 35.36C69.4 35.36 69.6347 35.4667 69.848 35.68C70.68 36.576 71.6187 37.2587 72.664 37.728C73.7307 38.1973 74.872 38.432 76.088 38.432C77.112 38.432 78.0187 38.272 78.808 37.952C79.6187 37.632 80.2587 37.1733 80.728 36.576C81.1973 35.9787 81.432 35.2853 81.432 34.496C81.432 33.5147 81.1653 32.7253 80.632 32.128C80.0987 31.5093 79.3947 31.008 78.52 30.624C77.6453 30.2187 76.6747 29.856 75.608 29.536C74.7333 29.28 73.9013 28.992 73.112 28.672C72.3227 28.3307 71.6187 27.9253 71 27.456C70.3813 26.9653 69.9013 26.368 69.56 25.664C69.2187 24.96 69.048 24.1067 69.048 23.104C69.048 21.9733 69.3467 20.9707 69.944 20.096C70.5413 19.2213 71.384 18.5387 72.472 18.048C73.5813 17.536 74.8613 17.28 76.312 17.28C77.5707 17.28 78.776 17.4933 79.928 17.92C81.1013 18.3467 82.0293 18.976 82.712 19.808C83.032 20.1493 83.192 20.4587 83.192 20.736C83.192 20.9493 83.0853 21.1627 82.872 21.376C82.6587 21.5893 82.424 21.696 82.168 21.696C81.9547 21.696 81.7733 21.6213 81.624 21.472C81.2613 21.024 80.8027 20.6293 80.248 20.288C79.6933 19.9253 79.0747 19.648 78.392 19.456C77.7307 19.264 77.0373 19.168 76.312 19.168C75.3093 19.168 74.4027 19.328 73.592 19.648C72.8027 19.9467 72.1733 20.384 71.704 20.96C71.256 21.536 71.032 22.2293 71.032 23.04C71.032 23.936 71.288 24.672 71.8 25.248C72.312 25.824 72.984 26.304 73.816 26.688C74.648 27.0507 75.5333 27.392 76.472 27.712C77.3893 27.968 78.264 28.2667 79.096 28.608C79.9493 28.928 80.696 29.3333 81.336 29.824C81.9973 30.3147 82.5093 30.9333 82.872 31.68C83.256 32.4267 83.448 33.3653 83.448 34.496C83.448 35.584 83.1387 36.5653 82.52 37.44C81.9013 38.3147 81.048 39.008 79.96 39.52C78.8933 40.032 77.6347 40.2987 76.184 40.32ZM102.729 31.808C102.729 33.4293 102.377 34.8907 101.673 36.192C100.969 37.472 100.009 38.4853 98.7928 39.232C97.5768 39.9573 96.1901 40.32 94.6328 40.32C93.1181 40.32 91.7421 39.9573 90.5048 39.232C89.2888 38.4853 88.3181 37.472 87.5928 36.192C86.8888 34.8907 86.5368 33.4293 86.5368 31.808C86.5368 30.1653 86.8888 28.704 87.5928 27.424C88.3181 26.144 89.2888 25.1307 90.5048 24.384C91.7421 23.6373 93.1181 23.264 94.6328 23.264C96.1901 23.264 97.5768 23.6373 98.7928 24.384C100.009 25.1307 100.969 26.144 101.673 27.424C102.377 28.704 102.729 30.1653 102.729 31.808ZM100.809 31.808C100.809 30.5067 100.542 29.3547 100.009 28.352C99.4754 27.328 98.7394 26.528 97.8008 25.952C96.8834 25.3547 95.8274 25.056 94.6328 25.056C93.4808 25.056 92.4354 25.3547 91.4968 25.952C90.5581 26.528 89.8114 27.328 89.2568 28.352C88.7234 29.3547 88.4568 30.5067 88.4568 31.808C88.4568 33.1093 88.7234 34.2613 89.2568 35.264C89.8114 36.2667 90.5581 37.0667 91.4968 37.664C92.4354 38.24 93.4808 38.528 94.6328 38.528C95.8274 38.528 96.8834 38.24 97.8008 37.664C98.7394 37.0667 99.4754 36.2667 100.009 35.264C100.542 34.2613 100.809 33.1093 100.809 31.808ZM108.921 39.04C108.921 39.296 108.825 39.52 108.633 39.712C108.441 39.904 108.217 40 107.961 40C107.684 40 107.449 39.904 107.257 39.712C107.087 39.52 107.001 39.296 107.001 39.04V17.28C107.001 17.024 107.097 16.8 107.289 16.608C107.481 16.416 107.705 16.32 107.961 16.32C108.239 16.32 108.463 16.416 108.633 16.608C108.825 16.8 108.921 17.024 108.921 17.28V39.04ZM139.766 19.264C140.022 19.4347 140.172 19.6587 140.214 19.936C140.257 20.192 140.193 20.448 140.022 20.704C139.873 20.896 139.681 21.0027 139.446 21.024C139.212 21.0453 138.988 21.0027 138.774 20.896C137.964 20.3627 137.089 19.9467 136.15 19.648C135.233 19.3493 134.241 19.2 133.174 19.2C131.873 19.2 130.657 19.4347 129.526 19.904C128.417 20.352 127.446 21.0133 126.614 21.888C125.782 22.7413 125.132 23.7547 124.662 24.928C124.214 26.1013 123.99 27.392 123.99 28.8C123.99 30.2507 124.225 31.5733 124.694 32.768C125.164 33.9413 125.814 34.9547 126.646 35.808C127.5 36.6613 128.481 37.312 129.59 37.76C130.7 38.208 131.894 38.432 133.174 38.432C134.22 38.432 135.201 38.2827 136.118 37.984C137.057 37.6853 137.932 37.28 138.742 36.768C138.956 36.64 139.18 36.5973 139.414 36.64C139.67 36.6613 139.873 36.7787 140.022 36.992C140.214 37.2267 140.278 37.4827 140.214 37.76C140.172 38.016 140.033 38.2187 139.798 38.368C139.265 38.7093 138.636 39.0293 137.91 39.328C137.185 39.6267 136.417 39.8613 135.606 40.032C134.796 40.224 133.985 40.32 133.174 40.32C131.638 40.32 130.198 40.0427 128.854 39.488C127.51 38.9333 126.316 38.1547 125.27 37.152C124.225 36.128 123.404 34.912 122.806 33.504C122.23 32.096 121.942 30.528 121.942 28.8C121.942 27.136 122.23 25.6107 122.806 24.224C123.382 22.816 124.182 21.6 125.206 20.576C126.23 19.552 127.425 18.752 128.79 18.176C130.156 17.6 131.617 17.312 133.174 17.312C134.39 17.312 135.564 17.4827 136.694 17.824C137.825 18.1653 138.849 18.6453 139.766 19.264ZM157.249 23.648C157.526 23.648 157.75 23.744 157.921 23.936C158.113 24.128 158.208 24.3627 158.208 24.64V39.04C158.208 39.296 158.113 39.52 157.921 39.712C157.729 39.904 157.505 40 157.249 40C156.971 40 156.737 39.904 156.545 39.712C156.374 39.52 156.289 39.296 156.289 39.04V35.232L156.833 34.976C156.833 35.5733 156.662 36.1813 156.321 36.8C156.001 37.4187 155.553 37.9947 154.977 38.528C154.401 39.0613 153.718 39.4987 152.929 39.84C152.161 40.16 151.329 40.32 150.433 40.32C148.982 40.32 147.681 39.9467 146.529 39.2C145.398 38.4533 144.502 37.4293 143.841 36.128C143.201 34.8267 142.881 33.3653 142.881 31.744C142.881 30.08 143.211 28.6187 143.873 27.36C144.534 26.08 145.43 25.0773 146.561 24.352C147.691 23.6267 148.971 23.264 150.401 23.264C151.318 23.264 152.171 23.424 152.961 23.744C153.771 24.064 154.475 24.5013 155.073 25.056C155.67 25.6107 156.129 26.2507 156.449 26.976C156.79 27.68 156.961 28.416 156.961 29.184L156.289 28.704V24.64C156.289 24.3627 156.374 24.128 156.545 23.936C156.737 23.744 156.971 23.648 157.249 23.648ZM150.593 38.528C151.723 38.528 152.726 38.24 153.601 37.664C154.475 37.0667 155.158 36.256 155.649 35.232C156.161 34.1867 156.417 33.024 156.417 31.744C156.417 30.4853 156.161 29.3547 155.649 28.352C155.158 27.3493 154.475 26.5493 153.601 25.952C152.726 25.3547 151.723 25.056 150.593 25.056C149.483 25.056 148.481 25.344 147.585 25.92C146.71 26.496 146.017 27.2853 145.505 28.288C145.014 29.2907 144.769 30.4427 144.769 31.744C144.769 33.024 145.014 34.1867 145.505 35.232C146.017 36.256 146.71 37.0667 147.585 37.664C148.459 38.24 149.462 38.528 150.593 38.528ZM165.359 39.04C165.359 39.296 165.263 39.52 165.071 39.712C164.879 39.904 164.655 40 164.399 40C164.121 40 163.887 39.904 163.695 39.712C163.524 39.52 163.439 39.296 163.439 39.04V17.28C163.439 17.024 163.535 16.8 163.727 16.608C163.919 16.416 164.143 16.32 164.399 16.32C164.676 16.32 164.9 16.416 165.071 16.608C165.263 16.8 165.359 17.024 165.359 17.28V39.04ZM177.509 23.264C178.533 23.264 179.472 23.3813 180.325 23.616C181.179 23.8293 181.861 24.128 182.373 24.512C182.907 24.896 183.173 25.312 183.173 25.76C183.173 25.9733 183.099 26.1867 182.949 26.4C182.8 26.592 182.597 26.688 182.341 26.688C182.085 26.688 181.872 26.624 181.701 26.496C181.552 26.368 181.392 26.2187 181.221 26.048C181.072 25.8773 180.848 25.7173 180.549 25.568C180.272 25.44 179.877 25.3227 179.365 25.216C178.853 25.1093 178.267 25.056 177.605 25.056C176.411 25.056 175.333 25.3547 174.373 25.952C173.413 26.5493 172.656 27.36 172.101 28.384C171.547 29.3867 171.269 30.5173 171.269 31.776C171.269 33.056 171.536 34.208 172.069 35.232C172.603 36.256 173.339 37.0667 174.277 37.664C175.216 38.24 176.315 38.528 177.573 38.528C178.427 38.528 179.088 38.4533 179.557 38.304C180.027 38.1547 180.432 37.984 180.773 37.792C181.179 37.5573 181.467 37.3333 181.637 37.12C181.829 36.8853 182.075 36.768 182.373 36.768C182.651 36.768 182.853 36.8533 182.981 37.024C183.131 37.1733 183.205 37.376 183.205 37.632C183.205 37.9733 182.949 38.3573 182.437 38.784C181.947 39.1893 181.264 39.552 180.389 39.872C179.515 40.1707 178.512 40.32 177.381 40.32C175.781 40.32 174.373 39.9467 173.157 39.2C171.963 38.4533 171.024 37.44 170.341 36.16C169.68 34.8587 169.349 33.3973 169.349 31.776C169.349 30.2187 169.691 28.8 170.373 27.52C171.056 26.24 172.005 25.216 173.221 24.448C174.459 23.6587 175.888 23.264 177.509 23.264ZM199.096 23.744C199.373 23.744 199.597 23.84 199.768 24.032C199.96 24.224 200.056 24.448 200.056 24.704V33.728C200.056 35.84 199.458 37.4507 198.264 38.56C197.069 39.6693 195.458 40.224 193.432 40.224C191.426 40.224 189.826 39.6693 188.632 38.56C187.458 37.4507 186.872 35.84 186.872 33.728V24.704C186.872 24.448 186.957 24.224 187.128 24.032C187.32 23.84 187.554 23.744 187.832 23.744C188.109 23.744 188.333 23.84 188.504 24.032C188.696 24.224 188.792 24.448 188.792 24.704V33.728C188.792 35.264 189.197 36.4373 190.008 37.248C190.84 38.0373 191.981 38.432 193.432 38.432C194.904 38.432 196.056 38.0373 196.888 37.248C197.72 36.4373 198.136 35.264 198.136 33.728V24.704C198.136 24.448 198.221 24.224 198.392 24.032C198.562 23.84 198.797 23.744 199.096 23.744ZM207.203 39.04C207.203 39.296 207.107 39.52 206.915 39.712C206.723 39.904 206.499 40 206.243 40C205.965 40 205.731 39.904 205.539 39.712C205.368 39.52 205.283 39.296 205.283 39.04V17.28C205.283 17.024 205.379 16.8 205.571 16.608C205.763 16.416 205.987 16.32 206.243 16.32C206.52 16.32 206.744 16.416 206.915 16.608C207.107 16.8 207.203 17.024 207.203 17.28V39.04ZM225.874 23.648C226.151 23.648 226.375 23.744 226.546 23.936C226.738 24.128 226.833 24.3627 226.833 24.64V39.04C226.833 39.296 226.738 39.52 226.546 39.712C226.354 39.904 226.13 40 225.874 40C225.596 40 225.362 39.904 225.17 39.712C224.999 39.52 224.914 39.296 224.914 39.04V35.232L225.458 34.976C225.458 35.5733 225.287 36.1813 224.946 36.8C224.626 37.4187 224.178 37.9947 223.602 38.528C223.026 39.0613 222.343 39.4987 221.554 39.84C220.786 40.16 219.954 40.32 219.058 40.32C217.607 40.32 216.306 39.9467 215.154 39.2C214.023 38.4533 213.127 37.4293 212.466 36.128C211.826 34.8267 211.506 33.3653 211.506 31.744C211.506 30.08 211.836 28.6187 212.498 27.36C213.159 26.08 214.055 25.0773 215.186 24.352C216.316 23.6267 217.596 23.264 219.026 23.264C219.943 23.264 220.796 23.424 221.586 23.744C222.396 24.064 223.1 24.5013 223.698 25.056C224.295 25.6107 224.754 26.2507 225.074 26.976C225.415 27.68 225.586 28.416 225.586 29.184L224.914 28.704V24.64C224.914 24.3627 224.999 24.128 225.17 23.936C225.362 23.744 225.596 23.648 225.874 23.648ZM219.218 38.528C220.348 38.528 221.351 38.24 222.226 37.664C223.1 37.0667 223.783 36.256 224.274 35.232C224.786 34.1867 225.042 33.024 225.042 31.744C225.042 30.4853 224.786 29.3547 224.274 28.352C223.783 27.3493 223.1 26.5493 222.226 25.952C221.351 25.3547 220.348 25.056 219.218 25.056C218.108 25.056 217.106 25.344 216.21 25.92C215.335 26.496 214.642 27.2853 214.13 28.288C213.639 29.2907 213.394 30.4427 213.394 31.744C213.394 33.024 213.639 34.1867 214.13 35.232C214.642 36.256 215.335 37.0667 216.21 37.664C217.084 38.24 218.087 38.528 219.218 38.528ZM230.816 23.712H238.272C238.528 23.712 238.741 23.808 238.912 24C239.082 24.1707 239.168 24.384 239.168 24.64C239.168 24.8747 239.082 25.0773 238.912 25.248C238.741 25.4187 238.528 25.504 238.272 25.504H230.816C230.56 25.504 230.336 25.4187 230.144 25.248C229.973 25.056 229.888 24.8427 229.888 24.608C229.888 24.352 229.973 24.1387 230.144 23.968C230.336 23.7973 230.56 23.712 230.816 23.712ZM234.112 19.2C234.389 19.2 234.613 19.296 234.784 19.488C234.976 19.68 235.072 19.904 235.072 20.16V36.224C235.072 36.8213 235.146 37.2693 235.296 37.568C235.466 37.8667 235.68 38.0693 235.936 38.176C236.192 38.2613 236.448 38.304 236.704 38.304C236.874 38.304 237.024 38.2827 237.152 38.24C237.301 38.176 237.461 38.144 237.632 38.144C237.824 38.144 237.984 38.2187 238.112 38.368C238.261 38.5173 238.336 38.7093 238.336 38.944C238.336 39.2427 238.165 39.4987 237.824 39.712C237.482 39.904 237.077 40 236.608 40C236.416 40 236.128 39.9893 235.744 39.968C235.36 39.9253 234.965 39.808 234.56 39.616C234.154 39.4027 233.813 39.04 233.536 38.528C233.28 38.016 233.152 37.28 233.152 36.32V20.16C233.152 19.904 233.237 19.68 233.408 19.488C233.6 19.296 233.834 19.2 234.112 19.2ZM244.572 39.04C244.572 39.296 244.476 39.52 244.284 39.712C244.092 39.904 243.868 40 243.612 40C243.334 40 243.1 39.904 242.908 39.712C242.737 39.52 242.652 39.296 242.652 39.04V24.32C242.652 24.064 242.737 23.84 242.908 23.648C243.1 23.456 243.334 23.36 243.612 23.36C243.889 23.36 244.113 23.456 244.284 23.648C244.476 23.84 244.572 24.064 244.572 24.32V39.04ZM243.612 21.216C243.164 21.216 242.822 21.12 242.588 20.928C242.374 20.7147 242.268 20.416 242.268 20.032V19.712C242.268 19.328 242.385 19.04 242.62 18.848C242.876 18.6347 243.217 18.528 243.644 18.528C244.049 18.528 244.358 18.6347 244.572 18.848C244.806 19.04 244.924 19.328 244.924 19.712V20.032C244.924 20.416 244.806 20.7147 244.572 20.928C244.358 21.12 244.038 21.216 243.612 21.216ZM264.791 31.808C264.791 33.4293 264.439 34.8907 263.735 36.192C263.031 37.472 262.071 38.4853 260.855 39.232C259.639 39.9573 258.253 40.32 256.695 40.32C255.181 40.32 253.805 39.9573 252.567 39.232C251.351 38.4853 250.381 37.472 249.655 36.192C248.951 34.8907 248.599 33.4293 248.599 31.808C248.599 30.1653 248.951 28.704 249.655 27.424C250.381 26.144 251.351 25.1307 252.567 24.384C253.805 23.6373 255.181 23.264 256.695 23.264C258.253 23.264 259.639 23.6373 260.855 24.384C262.071 25.1307 263.031 26.144 263.735 27.424C264.439 28.704 264.791 30.1653 264.791 31.808ZM262.871 31.808C262.871 30.5067 262.605 29.3547 262.071 28.352C261.538 27.328 260.802 26.528 259.863 25.952C258.946 25.3547 257.89 25.056 256.695 25.056C255.543 25.056 254.498 25.3547 253.559 25.952C252.621 26.528 251.874 27.328 251.319 28.352C250.786 29.3547 250.519 30.5067 250.519 31.808C250.519 33.1093 250.786 34.2613 251.319 35.264C251.874 36.2667 252.621 37.0667 253.559 37.664C254.498 38.24 255.543 38.528 256.695 38.528C257.89 38.528 258.946 38.24 259.863 37.664C260.802 37.0667 261.538 36.2667 262.071 35.264C262.605 34.2613 262.871 33.1093 262.871 31.808ZM276.584 23.264C277.992 23.264 279.112 23.552 279.944 24.128C280.797 24.6827 281.405 25.4507 281.768 26.432C282.152 27.392 282.344 28.4587 282.344 29.632V39.04C282.344 39.296 282.248 39.52 282.056 39.712C281.864 39.904 281.64 40 281.384 40C281.085 40 280.85 39.904 280.68 39.712C280.509 39.52 280.424 39.296 280.424 39.04V29.728C280.424 28.8747 280.285 28.096 280.008 27.392C279.73 26.688 279.272 26.1227 278.632 25.696C278.013 25.2693 277.192 25.056 276.168 25.056C275.25 25.056 274.376 25.2693 273.544 25.696C272.733 26.1227 272.072 26.688 271.56 27.392C271.048 28.096 270.792 28.8747 270.792 29.728V39.04C270.792 39.296 270.696 39.52 270.504 39.712C270.312 39.904 270.088 40 269.832 40C269.533 40 269.298 39.904 269.128 39.712C268.957 39.52 268.872 39.296 268.872 39.04V24.704C268.872 24.448 268.957 24.224 269.128 24.032C269.32 23.84 269.554 23.744 269.832 23.744C270.109 23.744 270.333 23.84 270.504 24.032C270.696 24.224 270.792 24.448 270.792 24.704V27.392L270.056 28.544C270.098 27.8613 270.312 27.2107 270.696 26.592C271.101 25.952 271.613 25.3867 272.232 24.896C272.85 24.384 273.533 23.9893 274.28 23.712C275.048 23.4133 275.816 23.264 276.584 23.264ZM286.444 37.408C286.273 37.152 286.188 36.9067 286.188 36.672C286.209 36.416 286.348 36.2133 286.604 36.064C286.774 35.9147 286.966 35.8507 287.18 35.872C287.414 35.8933 287.628 36 287.82 36.192C288.396 36.9387 289.089 37.5467 289.9 38.016C290.732 38.464 291.713 38.688 292.844 38.688C293.441 38.688 294.028 38.592 294.604 38.4C295.201 38.1867 295.692 37.8773 296.076 37.472C296.46 37.0453 296.652 36.512 296.652 35.872C296.652 35.2107 296.46 34.6773 296.076 34.272C295.692 33.8667 295.19 33.5467 294.572 33.312C293.974 33.0773 293.334 32.8747 292.652 32.704C291.926 32.512 291.222 32.2987 290.54 32.064C289.857 31.808 289.249 31.4987 288.716 31.136C288.204 30.752 287.788 30.2933 287.468 29.76C287.148 29.2267 286.988 28.576 286.988 27.808C286.988 26.912 287.233 26.1227 287.724 25.44C288.214 24.7573 288.876 24.224 289.708 23.84C290.561 23.456 291.521 23.264 292.588 23.264C293.121 23.264 293.697 23.3387 294.316 23.488C294.934 23.616 295.542 23.84 296.14 24.16C296.737 24.48 297.27 24.9173 297.74 25.472C297.932 25.664 298.028 25.888 298.028 26.144C298.028 26.3787 297.921 26.592 297.708 26.784C297.537 26.912 297.334 26.976 297.1 26.976C296.886 26.976 296.705 26.8907 296.556 26.72C296.044 26.144 295.436 25.7067 294.732 25.408C294.028 25.1093 293.27 24.96 292.46 24.96C291.841 24.96 291.254 25.0667 290.7 25.28C290.166 25.472 289.718 25.7707 289.356 26.176C288.993 26.5813 288.812 27.1147 288.812 27.776C288.854 28.3947 289.068 28.896 289.452 29.28C289.857 29.664 290.38 29.984 291.02 30.24C291.681 30.496 292.417 30.7307 293.228 30.944C293.91 31.1147 294.561 31.3173 295.18 31.552C295.82 31.7867 296.374 32.0853 296.844 32.448C297.334 32.7893 297.718 33.2267 297.996 33.76C298.294 34.2933 298.444 34.9653 298.444 35.776C298.444 36.7147 298.177 37.5253 297.644 38.208C297.132 38.8907 296.438 39.4133 295.564 39.776C294.689 40.1387 293.718 40.32 292.652 40.32C291.5 40.32 290.38 40.096 289.292 39.648C288.225 39.2 287.276 38.4533 286.444 37.408Z" fill="url(#paint0_linear_372_384)"/>
<path d="M29.2312 59.4885C36.6767 59.4885 42.7125 53.4527 42.7125 46.0072C42.7125 38.5618 36.6767 32.526 29.2312 32.526C21.7858 32.526 15.75 38.5618 15.75 46.0072C15.75 53.4527 21.7858 59.4885 29.2312 59.4885Z" stroke="url(#paint1_linear_372_384)" stroke-width="1.23179" stroke-miterlimit="10"/>
<path d="M20.3953 56.6691C27.8408 56.6691 33.8765 50.6334 33.8765 43.1879C33.8765 35.7424 27.8408 29.7067 20.3953 29.7067C12.9498 29.7067 6.91406 35.7424 6.91406 43.1879C6.91406 50.6334 12.9498 56.6691 20.3953 56.6691Z" stroke="url(#paint2_linear_372_384)" stroke-width="1.23179" stroke-miterlimit="10"/>
<path d="M14.9051 49.1936C22.3505 49.1936 28.3863 43.1578 28.3863 35.7123C28.3863 28.2668 22.3505 22.2311 14.9051 22.2311C7.45958 22.2311 1.42383 28.2668 1.42383 35.7123C1.42383 43.1578 7.45958 49.1936 14.9051 49.1936Z" stroke="url(#paint3_linear_372_384)" stroke-width="1.23179" stroke-miterlimit="10"/>
<path d="M14.8543 39.9195C22.2998 39.9195 28.3355 33.8837 28.3355 26.4383C28.3355 18.9928 22.2998 12.957 14.8543 12.957C7.4088 12.957 1.37305 18.9928 1.37305 26.4383C1.37305 33.8837 7.4088 39.9195 14.8543 39.9195Z" stroke="url(#paint4_linear_372_384)" stroke-width="1.23179" stroke-miterlimit="10"/>
<path d="M20.2664 32.3878C27.7119 32.3878 33.7476 26.352 33.7476 18.9065C33.7476 11.461 27.7119 5.42529 20.2664 5.42529C12.8209 5.42529 6.78516 11.461 6.78516 18.9065C6.78516 26.352 12.8209 32.3878 20.2664 32.3878Z" stroke="url(#paint5_linear_372_384)" stroke-width="1.23179" stroke-miterlimit="10"/>
<path d="M29.073 29.4739C36.5185 29.4739 42.5543 23.4382 42.5543 15.9927C42.5543 8.54723 36.5185 2.51147 29.073 2.51147C21.6276 2.51147 15.5918 8.54723 15.5918 15.9927C15.5918 23.4382 21.6276 29.4739 29.073 29.4739Z" stroke="url(#paint6_linear_372_384)" stroke-width="1.23179" stroke-miterlimit="10"/>
<path d="M37.909 32.2934C45.3545 32.2934 51.3902 26.2577 51.3902 18.8122C51.3902 11.3667 45.3545 5.33093 37.909 5.33093C30.4635 5.33093 24.4277 11.3667 24.4277 18.8122C24.4277 26.2577 30.4635 32.2934 37.909 32.2934Z" stroke="url(#paint7_linear_372_384)" stroke-width="1.23179" stroke-miterlimit="10"/>
<path d="M43.3992 39.769C50.8447 39.769 56.8804 33.7332 56.8804 26.2878C56.8804 18.8423 50.8447 12.8065 43.3992 12.8065C35.9537 12.8065 29.918 18.8423 29.918 26.2878C29.918 33.7332 35.9537 39.769 43.3992 39.769Z" stroke="url(#paint8_linear_372_384)" stroke-width="1.23179" stroke-miterlimit="10"/>
<path d="M43.45 49.0429C50.8955 49.0429 56.9312 43.0072 56.9312 35.5617C56.9312 28.1162 50.8955 22.0804 43.45 22.0804C36.0045 22.0804 29.9688 28.1162 29.9688 35.5617C29.9688 43.0072 36.0045 49.0429 43.45 49.0429Z" stroke="url(#paint9_linear_372_384)" stroke-width="1.23179" stroke-miterlimit="10"/>
<path d="M38.0379 56.5747C45.4834 56.5747 51.5191 50.5389 51.5191 43.0934C51.5191 35.6479 45.4834 29.6122 38.0379 29.6122C30.5924 29.6122 24.5566 35.6479 24.5566 43.0934C24.5566 50.5389 30.5924 56.5747 38.0379 56.5747Z" stroke="url(#paint10_linear_372_384)" stroke-width="1.23179" stroke-miterlimit="10"/>
<defs>
<linearGradient id="paint0_linear_372_384" x1="82" y1="28" x2="279" y2="28" gradientUnits="userSpaceOnUse">
<stop stop-color="#AA92E5"/>
<stop offset="1" stop-color="#5FABD5"/>
</linearGradient>
<linearGradient id="paint1_linear_372_384" x1="43.3297" y1="45.9316" x2="15.1358" y2="46.0793" gradientUnits="userSpaceOnUse">
<stop stop-color="#8D6DDC"/>
<stop offset="1" stop-color="#5EAAD4"/>
</linearGradient>
<linearGradient id="paint2_linear_372_384" x1="31.8451" y1="51.4133" x2="8.94903" y2="34.9608" gradientUnits="userSpaceOnUse">
<stop stop-color="#8D6DDC"/>
<stop offset="1" stop-color="#5EAAD4"/>
</linearGradient>
<linearGradient id="paint3_linear_372_384" x1="19.3328" y1="49.0982" x2="10.48" y2="22.3298" gradientUnits="userSpaceOnUse">
<stop stop-color="#8D6DDC"/>
<stop offset="1" stop-color="#5EAAD4"/>
</linearGradient>
<linearGradient id="paint4_linear_372_384" x1="10.5693" y1="39.8693" x2="6.03366" y2="54.0815" gradientUnits="userSpaceOnUse">
<stop stop-color="#8D6DDC"/>
<stop offset="1" stop-color="#5EAAD4"/>
</linearGradient>
<linearGradient id="paint5_linear_372_384" x1="-0.562854" y1="14.3638" x2="-12.586" y2="23.1956" gradientUnits="userSpaceOnUse">
<stop stop-color="#8D6DDC"/>
<stop offset="1" stop-color="#5EAAD4"/>
</linearGradient>
<linearGradient id="paint6_linear_372_384" x1="-0.164143" y1="0.154653" x2="-0.0272794" y2="0.153937" gradientUnits="userSpaceOnUse">
<stop stop-color="#8D6DDC"/>
<stop offset="1" stop-color="#5EAAD4"/>
</linearGradient>
<linearGradient id="paint7_linear_372_384" x1="35.7916" y1="-2.40066" x2="58.6876" y2="14.0519" gradientUnits="userSpaceOnUse">
<stop stop-color="#8D6DDC"/>
<stop offset="1" stop-color="#5EAAD4"/>
</linearGradient>
<linearGradient id="paint8_linear_372_384" x1="54.1553" y1="7.8803" x2="63.0081" y2="34.6486" gradientUnits="userSpaceOnUse">
<stop stop-color="#8D6DDC"/>
<stop offset="1" stop-color="#5EAAD4"/>
</linearGradient>
<linearGradient id="paint9_linear_372_384" x1="52.3122" y1="7.78811" x2="52.2706" y2="7.9185" gradientUnits="userSpaceOnUse">
<stop stop-color="#8D6DDC"/>
<stop offset="1" stop-color="#5EAAD4"/>
</linearGradient>
<linearGradient id="paint10_linear_372_384" x1="58.8671" y1="47.6362" x2="70.8902" y2="38.8043" gradientUnits="userSpaceOnUse">
<stop stop-color="#8D6DDC"/>
<stop offset="1" stop-color="#5EAAD4"/>
</linearGradient>
</defs>
</svg>
