<svg width="83" height="84" viewBox="0 0 83 84" fill="none" xmlns="http://www.w3.org/2000/svg">
<path d="M79.3631 21.912L80.8012 20.4739C83.7329 17.5145 83.7329 12.7298 80.8012 9.77029L74.0253 2.99431C71.0659 0.0626398 66.2812 0.0349382 63.3217 2.99431L61.8835 4.43248L60.4453 2.99431C57.486 0.0626398 52.7013 0.0626398 49.7418 2.99431L45.206 7.53009C42.2466 10.4895 42.2466 15.2741 45.206 18.2337L49.4652 22.4929L21.6973 50.2607L17.4381 46.0015C14.4787 43.0699 9.69408 43.0422 6.73454 46.0015L2.19875 50.5373C-0.732917 53.4967 -0.732917 58.2813 2.19875 61.2409L3.63693 62.6791L2.19875 64.1172C-0.732917 67.0766 -0.732917 71.8613 2.19875 74.8208L8.97473 81.5968C10.4405 83.0626 12.3766 83.8094 14.3125 83.8094C16.2485 83.8094 18.1845 83.0626 19.6503 81.5968L21.0885 80.1586L22.5267 81.5968C23.9925 83.0626 25.9286 83.8094 27.8645 83.8094C29.8004 83.8094 31.7365 83.0626 33.2023 81.5968L37.7381 77.061C40.6975 74.1016 40.6975 69.317 37.7381 66.3574L33.4789 62.0982L61.2467 34.3304L65.506 38.5896C66.9717 40.0554 68.9078 40.8022 70.8438 40.8022C72.7797 40.8022 74.7158 40.0554 76.1816 38.5896L80.7173 34.0538C83.649 31.0944 83.649 26.3098 80.7173 23.3502L79.2792 21.912H79.3631ZM15.8346 77.6416C15.0326 78.4437 13.7603 78.4437 12.9583 77.6416L6.18228 70.8656C5.38022 70.0635 5.38022 68.7913 6.18228 67.9893L7.62046 66.5511L17.2726 76.2032L15.8346 77.6416ZM33.9229 73.1058L29.3871 77.6416C28.585 78.4437 27.3128 78.4437 26.5107 77.6416L6.15502 57.2859C5.35296 56.4838 5.35296 55.2115 6.15502 54.4095L10.6908 49.8737C11.078 49.4865 11.6035 49.2929 12.129 49.2929C12.6545 49.2929 13.18 49.4865 13.5672 49.8737L33.9229 70.2295C34.7249 71.0315 34.7249 72.3038 33.9229 73.1058ZM29.6637 58.1435L25.6534 54.1332L53.4213 26.3653L57.4315 30.3756L29.6637 58.1435ZM76.9022 30.1269L72.3665 34.6627C71.5644 35.4647 70.2921 35.4647 69.4901 34.6627L49.1344 14.307C48.3323 13.5049 48.3323 12.2326 49.1344 11.4306L53.6702 6.89482C54.0574 6.50762 54.5828 6.31402 55.1083 6.31402C55.6339 6.31402 56.1593 6.50762 56.5465 6.89482L76.9022 27.2505C77.7043 28.0526 77.7043 29.3249 76.9022 30.1269ZM76.9022 16.547L75.4641 17.9851L65.8119 8.33299L67.2501 6.89482C68.0521 6.09276 69.3244 6.09276 70.1264 6.89482L76.9024 13.6708C77.7045 14.4729 77.7043 15.745 76.9022 16.547Z" fill="url(#paint0_linear_2962_402)"/>
<path d="M64.5387 61.3787C63.46 60.3 61.7176 60.3 60.6391 61.3787C59.5605 62.4574 59.5604 64.1997 60.6391 65.2783L66.3641 71.031C66.9173 71.5842 67.6087 71.8331 68.3279 71.8331C69.047 71.8331 69.7384 71.5565 70.2916 71.031C71.3702 69.9523 71.3702 68.21 70.2916 67.1314L64.5665 61.3787H64.5387Z" fill="url(#paint1_linear_2962_402)"/>
<path d="M73.3341 51.948H65.2306C63.7094 51.948 62.4648 53.1925 62.4648 54.7137C62.4648 56.2349 63.7094 57.4794 65.2306 57.4794H73.3341C74.8553 57.4794 76.0998 56.2349 76.0998 54.7137C76.0998 53.1925 74.8553 51.948 73.3341 51.948Z" fill="url(#paint2_linear_2962_402)"/>
<path d="M53.9728 63.2036C52.4516 63.2036 51.207 64.4481 51.207 65.9693V74.0729C51.207 75.594 52.4516 76.8386 53.9728 76.8386C55.4939 76.8386 56.7385 75.594 56.7385 74.0729V65.9693C56.7385 64.4481 55.4939 63.2036 53.9728 63.2036Z" fill="url(#paint3_linear_2962_402)"/>
<path d="M18.518 23.1563C19.0711 23.7095 19.7625 23.9584 20.4817 23.9584C21.2009 23.9584 21.8923 23.6818 22.4454 23.1563C23.5241 22.0777 23.5241 20.3353 22.4454 19.2567L16.7203 13.504C15.6416 12.4253 13.8993 12.4253 12.8207 13.504C11.7421 14.5827 11.742 16.325 12.8207 17.4036L18.5458 23.1563H18.518Z" fill="url(#paint4_linear_2962_402)"/>
<path d="M9.7208 32.587H17.8243C19.3455 32.587 20.5901 31.3425 20.5901 29.8213C20.5901 28.3001 19.3455 27.0556 17.8243 27.0556H9.7208C8.19961 27.0556 6.95508 28.3001 6.95508 29.8213C6.95508 31.3425 8.19961 32.587 9.7208 32.587Z" fill="url(#paint5_linear_2962_402)"/>
<path d="M29.0841 21.3314C30.6053 21.3314 31.8498 20.0868 31.8498 18.5656V10.4621C31.8498 8.94091 30.6053 7.69638 29.0841 7.69638C27.5629 7.69638 26.3184 8.94091 26.3184 10.4621V18.5656C26.3184 20.0868 27.5629 21.3314 29.0841 21.3314Z" fill="url(#paint6_linear_2962_402)"/>
<defs>
<linearGradient id="paint0_linear_2962_402" x1="5.34335" y1="42.2973" x2="75.5193" y2="42.2973" gradientUnits="userSpaceOnUse">
<stop stop-color="#AA92E5"/>
<stop offset="1" stop-color="#5FABD5"/>
</linearGradient>
<linearGradient id="paint1_linear_2962_402" x1="60.5556" y1="66.2014" x2="70.0848" y2="66.2014" gradientUnits="userSpaceOnUse">
<stop stop-color="#AA92E5"/>
<stop offset="1" stop-color="#5FABD5"/>
</linearGradient>
<linearGradient id="paint2_linear_2962_402" x1="63.3426" y1="54.7137" x2="74.8709" y2="54.7137" gradientUnits="userSpaceOnUse">
<stop stop-color="#AA92E5"/>
<stop offset="1" stop-color="#5FABD5"/>
</linearGradient>
<linearGradient id="paint3_linear_2962_402" x1="51.5631" y1="70.0211" x2="56.2399" y2="70.0211" gradientUnits="userSpaceOnUse">
<stop stop-color="#AA92E5"/>
<stop offset="1" stop-color="#5FABD5"/>
</linearGradient>
<linearGradient id="paint4_linear_2962_402" x1="12.7355" y1="18.3267" x2="22.2411" y2="18.3267" gradientUnits="userSpaceOnUse">
<stop stop-color="#AA92E5"/>
<stop offset="1" stop-color="#5FABD5"/>
</linearGradient>
<linearGradient id="paint5_linear_2962_402" x1="7.83287" y1="29.8213" x2="19.3611" y2="29.8213" gradientUnits="userSpaceOnUse">
<stop stop-color="#AA92E5"/>
<stop offset="1" stop-color="#5FABD5"/>
</linearGradient>
<linearGradient id="paint6_linear_2962_402" x1="26.6745" y1="14.5139" x2="31.3513" y2="14.5139" gradientUnits="userSpaceOnUse">
<stop stop-color="#AA92E5"/>
<stop offset="1" stop-color="#5FABD5"/>
</linearGradient>
</defs>
</svg>
