<svg width="99" height="99" viewBox="0 0 99 99" fill="none" xmlns="http://www.w3.org/2000/svg">
<g clip-path="url(#clip0_3020_103)">
<circle cx="47.0482" cy="48.2376" r="42.2825" stroke="url(#paint0_linear_3020_103)" stroke-width="6.1875"/>
<path d="M50.8151 70.4926C50.8151 71.3565 50.5102 72.0934 49.9003 72.7032C49.3413 73.313 48.6299 73.6179 47.766 73.6179C46.8512 73.6179 46.1144 73.313 45.5554 72.7032C44.9964 72.0934 44.7169 71.3565 44.7169 70.4926V36.6475C44.7169 35.7836 44.9964 35.0721 45.5554 34.5131C46.1652 33.9033 46.902 33.5984 47.766 33.5984C48.6299 33.5984 49.3413 33.9033 49.9003 34.5131C50.5102 35.0721 50.8151 35.7836 50.8151 36.6475V70.4926ZM47.766 28.4911C46.4955 28.4911 45.5554 28.2371 44.9455 27.7289C44.3357 27.2207 44.0308 26.433 44.0308 25.3658V24.2986C44.0308 23.2314 44.3611 22.4437 45.0218 21.9356C45.6824 21.4274 46.6225 21.1733 47.8422 21.1733C49.0618 21.1733 49.9766 21.4274 50.5864 21.9356C51.1962 22.4437 51.5011 23.2314 51.5011 24.2986V25.3658C51.5011 26.433 51.1708 27.2207 50.5102 27.7289C49.9003 28.2371 48.9856 28.4911 47.766 28.4911Z" fill="url(#paint1_linear_3020_103)"/>
</g>
<defs>
<linearGradient id="paint0_linear_3020_103" x1="10.2097" y1="48.2376" x2="81.7089" y2="48.2376" gradientUnits="userSpaceOnUse">
<stop stop-color="#AA92E5"/>
<stop offset="1" stop-color="#5FABD5"/>
</linearGradient>
<linearGradient id="paint1_linear_3020_103" x1="40.3991" y1="45.1179" x2="54.7725" y2="45.1179" gradientUnits="userSpaceOnUse">
<stop stop-color="#AA92E5"/>
<stop offset="1" stop-color="#5FABD5"/>
</linearGradient>
<clipPath id="clip0_3020_103">
<rect width="99" height="99" fill="white"/>
</clipPath>
</defs>
</svg>
